<?xml version="1.0" encoding="utf-8"?>
<!-- Generator: Adobe Illustrator 27.4.1, SVG Export Plug-In . SVG Version: 6.00 Build 0)  -->
<svg version="1.1" id="Layer_1" xmlns="http://www.w3.org/2000/svg" xmlns:xlink="http://www.w3.org/1999/xlink" x="0px" y="0px"
	 viewBox="0 0 222 84" style="enable-background:new 0 0 222 84;" xml:space="preserve">
<style type="text/css">
	.st0{fill:url(#SVGID_1_);}
	.st1{fill:url(#SVGID_00000178895304409215455430000006630720048169220283_);}
	.st2{fill:url(#SVGID_00000070823200552856821010000007909126219665947559_);}
	.st3{fill:#14293C;}
</style>
<g>
	<g>
		
			<radialGradient id="SVGID_1_" cx="1231.7037" cy="436.6485" r="15.125" gradientTransform="matrix(-0.5391 0.8422 -0.8422 -0.5391 1064.1461 -770.009)" gradientUnits="userSpaceOnUse">
			<stop  offset="0" style="stop-color:#12283B"/>
			<stop  offset="0.2123" style="stop-color:#255462"/>
			<stop  offset="0.4626" style="stop-color:#398089"/>
			<stop  offset="0.6864" style="stop-color:#48A1A6"/>
			<stop  offset="0.8732" style="stop-color:#51B5B8"/>
			<stop  offset="1" style="stop-color:#54BCBE"/>
		</radialGradient>
		<path class="st0" d="M15.7,38.5c-1.9-1.3-2.6-2.9-2.4-4.9c0.2-2.1,1.5-3.5,3.4-4.2c5-1.7,5-1.7,4.9-7c0-1.7,1-3.3,2.6-4
			c1.6-0.6,3.5-0.2,4.6,1.1c2,2.3,4.3,3.1,7.3,2.1c0.7-0.2,1.3-0.7,1.9-1.1c1.1-0.7,2.2-0.8,3.3-0.1c1.1,0.7,1.7,1.7,1.4,3
			c-0.8,3.7,0.8,6.6,3.2,9.2c0.4,0.4,0.9,0.6,1.4,0.9c1,0.6,1.4,1.5,1,2.6c-0.3,1-1.5,1.7-2.5,1.4c-1.1-0.3-1.7-1.1-1.6-2.3
			c0.2-4.5-1.7-7.7-5.8-9.6c-1-0.5-1.6-1.5-2.7-1.9c-2.5-0.9-4.7-0.4-6.6,1.3c-0.9,0.7-1.8,1.2-2.8,1.6c-2.9,1-3.9,2.6-3.2,5.7
			c0.3,1.6,0.3,3-0.5,4.5C21.3,39,17.3,39.9,15.7,38.5z"/>
		
			<radialGradient id="SVGID_00000172415869593611065050000004104282277277929406_" cx="1245.6061" cy="446.3231" r="14.8478" gradientTransform="matrix(-0.5391 0.8422 -0.8422 -0.5391 1064.1461 -770.009)" gradientUnits="userSpaceOnUse">
			<stop  offset="0" style="stop-color:#12283B"/>
			<stop  offset="0.2123" style="stop-color:#255462"/>
			<stop  offset="0.4626" style="stop-color:#398089"/>
			<stop  offset="0.6864" style="stop-color:#48A1A6"/>
			<stop  offset="0.8732" style="stop-color:#51B5B8"/>
			<stop  offset="1" style="stop-color:#54BCBE"/>
		</radialGradient>
		<path style="fill:url(#SVGID_00000172415869593611065050000004104282277277929406_);" d="M22,50.7c-0.5-0.3-0.9-0.7-1.2-1.1
			c-2.6-2.8-4.5-3-7.5-0.6c-1.2,1-2.6,1.3-4.1,0.7c-2.1-0.9-3-2.8-2.3-5.1C8,41,6.5,37.8,3,36.2c-1.2-0.5-1.7-1.5-1.6-2.8
			c0.1-1.2,0.6-2.1,1.8-2.5c3.2-1.1,6.4-5.5,6.3-8.9c0-1.4,0.6-2.3,1.9-2.5c1.1-0.1,2.1,0.6,2.4,1.6c0.3,1.2-0.2,2.1-1.5,2.7
			c-2.9,1.3-5.7,6.1-5.4,9.2c0,0.4,0,0.9-0.1,1.4c-0.5,3.3,1.3,6.5,4.5,7.6c1,0.3,1.8,0.8,2.5,1.6c2.1,2.1,4.3,2.2,6.6,0.2
			c1.7-1.4,3.3-2.5,5.7-1.8c2,0.6,3,2,3.3,4c0.3,2-0.4,3.6-2.1,4.7C25.6,51.8,23.8,51.8,22,50.7z"/>
		
			<radialGradient id="SVGID_00000119106660467044648290000011281415962959925922_" cx="1247.0967" cy="429.732" r="14.6372" gradientTransform="matrix(-0.5391 0.8422 -0.8422 -0.5391 1064.1461 -770.009)" gradientUnits="userSpaceOnUse">
			<stop  offset="0" style="stop-color:#12283B"/>
			<stop  offset="0.2123" style="stop-color:#255462"/>
			<stop  offset="0.4626" style="stop-color:#398089"/>
			<stop  offset="0.6864" style="stop-color:#48A1A6"/>
			<stop  offset="0.8732" style="stop-color:#51B5B8"/>
			<stop  offset="1" style="stop-color:#54BCBE"/>
		</radialGradient>
		<path style="fill:url(#SVGID_00000119106660467044648290000011281415962959925922_);" d="M18.7,60.6c3.1-2.2,7.4-1.7,10,0.9
			c0.8,0.8,1.8,1.2,3,0.9c2.1-0.4,3.1-1.7,2.7-4.2c-0.6-4.1,2-6.4,4.6-7.1c2.1-0.5,3.4-1.9,3.5-3.7c0.1-1.9-0.8-3-2.9-4
			c-3-1.3-3.8-3-2.9-6.1c0.1-0.4,0.2-0.7,0.3-1c0.6-2.1,0-4-1.7-5.4c-1.7-1.3-3.7-1.5-5.5-0.5c-1.8,1-2.8,3-2.5,5.1
			c0.4,2.3,1.9,3.6,4.1,4.3c3.5,1.1,4.4,2.7,3.6,6.2c-0.2,0.9-0.2,1.7,0,2.6c0.6,3.3-1.1,6.1-4.2,7c-0.7,0.2-1.4,0.5-2,0.9
			c-2.7,2.1-6.5,2.3-9.2,0.5c-0.4-0.3-0.6-0.4-0.8-0.6c-1.3-0.9-2.8-0.8-3.7,0.2c-0.8,0.9-0.9,2.6,0,3.5
			C16,61.3,17.4,61.5,18.7,60.6z"/>
	</g>
	<g>
		<path class="st3" d="M69.2,46.5c-0.9-0.5-1.9-0.7-3.1-0.7c-1.4,0-2.7,0.3-3.8,1c-0.7,0.4-1.2,0.9-1.7,1.5
			c-0.3-0.6-0.8-1.1-1.4-1.4c-1-0.7-2.2-1-3.6-1c-1.2,0-2.3,0.2-3.2,0.7c-0.6,0.3-1.1,0.8-1.6,1.3V46h-3.2v14.6h3.4v-7.4
			c0-1,0.2-1.8,0.5-2.4c0.3-0.6,0.8-1.1,1.3-1.4c0.6-0.3,1.2-0.5,2-0.5c1.1,0,1.9,0.3,2.4,1c0.6,0.6,0.8,1.6,0.8,2.9v7.9h3.4v-7.4
			c0-1,0.2-1.8,0.5-2.4c0.3-0.6,0.8-1.1,1.3-1.4c0.6-0.3,1.2-0.5,2-0.5c1.1,0,1.9,0.3,2.4,1c0.6,0.6,0.8,1.6,0.8,2.9v7.9h3.4v-8.3
			c0-1.5-0.3-2.7-0.8-3.6C70.8,47.6,70.1,46.9,69.2,46.5z"/>
		<path class="st3" d="M87,46.7c-1.1-0.6-2.4-0.9-3.8-0.9c-1.5,0-2.7,0.3-3.9,1c-1.1,0.6-2,1.5-2.7,2.6c-0.6,1.1-1,2.4-1,3.9
			c0,1.4,0.3,2.7,1,3.8c0.7,1.1,1.6,2,2.8,2.7c1.2,0.6,2.6,1,4.2,1c1.3,0,2.4-0.2,3.4-0.6c1-0.4,1.8-1,2.5-1.8l-1.8-2.1
			c-0.5,0.5-1.1,0.9-1.7,1.2c-0.7,0.3-1.4,0.4-2.2,0.4c-0.9,0-1.8-0.2-2.5-0.5c-0.7-0.4-1.3-0.9-1.7-1.6c-0.3-0.4-0.4-0.9-0.5-1.4
			h11.4c0-0.2,0-0.3,0-0.5c0-0.2,0-0.3,0-0.5c0-1.5-0.3-2.9-1-4C89,48.2,88.2,47.4,87,46.7z M79.6,50.6c0.4-0.6,0.8-1.1,1.5-1.5
			c0.6-0.4,1.4-0.5,2.2-0.5c0.8,0,1.5,0.2,2.2,0.5c0.6,0.4,1.1,0.9,1.5,1.5c0.3,0.4,0.4,1,0.5,1.5h-8.3C79.2,51.5,79.4,51,79.6,50.6
			z"/>
		<path class="st3" d="M105.2,47.8c-0.4-0.5-0.9-0.9-1.4-1.2c-1-0.5-2.1-0.8-3.3-0.8c-1.4,0-2.7,0.3-3.8,0.9c-1.1,0.6-2,1.5-2.6,2.6
			c-0.6,1.1-1,2.4-1,3.9c0,1.5,0.3,2.8,1,3.9c0.6,1.1,1.5,2,2.6,2.6c1.1,0.6,2.4,0.9,3.8,0.9c1.3,0,2.4-0.3,3.3-0.8
			c0.6-0.3,1.1-0.8,1.5-1.3v1.9h3.2V40.3h-3.4V47.8z M104.7,55.7c-0.4,0.7-0.9,1.2-1.6,1.6c-0.6,0.4-1.4,0.5-2.2,0.5
			c-0.8,0-1.5-0.2-2.2-0.5c-0.6-0.4-1.2-0.9-1.6-1.6c-0.4-0.7-0.6-1.5-0.6-2.4c0-0.9,0.2-1.8,0.6-2.4c0.4-0.7,0.9-1.2,1.6-1.6
			c0.6-0.4,1.4-0.5,2.2-0.5c0.8,0,1.5,0.2,2.2,0.5c0.6,0.4,1.2,0.9,1.6,1.6c0.4,0.7,0.6,1.5,0.6,2.4C105.3,54.2,105.1,55,104.7,55.7
			z"/>
		<rect x="113.5" y="46" class="st3" width="3.4" height="14.6"/>
		<path class="st3" d="M115.3,39.5c-0.6,0-1.2,0.2-1.6,0.6c-0.4,0.4-0.6,0.9-0.6,1.5c0,0.6,0.2,1,0.6,1.4c0.4,0.4,0.9,0.6,1.6,0.6
			c0.7,0,1.2-0.2,1.6-0.6c0.4-0.4,0.6-0.9,0.6-1.5c0-0.6-0.2-1-0.6-1.4C116.4,39.7,115.9,39.5,115.3,39.5z"/>
		<path class="st3" d="M132.3,47.3c-1.2-1-2.8-1.5-4.9-1.5c-1.2,0-2.3,0.2-3.4,0.4c-1.1,0.3-2,0.7-2.8,1.3l1.3,2.5
			c0.5-0.5,1.2-0.8,2-1.1c0.8-0.3,1.6-0.4,2.4-0.4c1.2,0,2.1,0.3,2.7,0.8c0.6,0.6,0.9,1.3,0.9,2.3V52h-3.8c-1.5,0-2.7,0.2-3.5,0.6
			c-0.9,0.4-1.5,0.9-1.9,1.6c-0.4,0.7-0.6,1.4-0.6,2.2c0,0.8,0.2,1.6,0.7,2.2c0.4,0.7,1.1,1.2,1.9,1.6c0.8,0.4,1.8,0.6,2.9,0.6
			c1.3,0,2.4-0.2,3.2-0.7c0.6-0.3,1-0.8,1.4-1.3v1.8h3.2V52C134.1,49.9,133.5,48.3,132.3,47.3z M129.2,57.7
			c-0.7,0.4-1.4,0.6-2.2,0.6c-0.9,0-1.6-0.2-2-0.5c-0.5-0.4-0.7-0.9-0.7-1.5c0-0.5,0.2-1,0.6-1.4c0.4-0.4,1.2-0.6,2.3-0.6h3.5V56
			C130.4,56.7,129.9,57.3,129.2,57.7z"/>
		<path class="st3" d="M150.8,46.7c-1.1-0.6-2.4-0.9-3.8-0.9c-1.2,0-2.3,0.3-3.3,0.8c-0.6,0.3-1.1,0.8-1.5,1.3V46h-3.2v19.8h3.4
			v-7.1c0.4,0.5,0.9,0.9,1.4,1.2c1,0.5,2,0.8,3.2,0.8c1.4,0,2.7-0.3,3.8-0.9c1.1-0.6,2-1.5,2.6-2.6c0.6-1.1,1-2.4,1-3.9
			c0-1.5-0.3-2.8-1-3.9C152.7,48.2,151.9,47.4,150.8,46.7z M150.3,55.7c-0.4,0.7-0.9,1.2-1.5,1.6c-0.6,0.4-1.4,0.5-2.2,0.5
			c-0.8,0-1.6-0.2-2.2-0.5c-0.7-0.4-1.2-0.9-1.6-1.6c-0.4-0.7-0.6-1.5-0.6-2.4c0-0.9,0.2-1.8,0.6-2.4c0.4-0.7,0.9-1.2,1.6-1.6
			c0.7-0.4,1.4-0.5,2.2-0.5c0.8,0,1.5,0.2,2.2,0.5c0.6,0.4,1.2,0.9,1.5,1.6c0.4,0.7,0.6,1.5,0.6,2.4C150.9,54.2,150.7,55,150.3,55.7
			z"/>
		<path class="st3" d="M161.3,48.1V46h-3.2v14.6h3.4v-7.1c0-1.5,0.4-2.6,1.1-3.4c0.8-0.8,1.8-1.1,3.1-1.1c0.1,0,0.3,0,0.4,0
			c0.1,0,0.3,0,0.4,0.1v-3.2c-1.4,0-2.6,0.3-3.5,0.8C162.3,46.9,161.7,47.5,161.3,48.1z"/>
		<path class="st3" d="M180.3,46.8c-1.2-0.6-2.5-1-4-1c-1.5,0-2.8,0.3-4,1c-1.2,0.6-2.1,1.5-2.8,2.6c-0.7,1.1-1,2.4-1,3.9
			c0,1.4,0.3,2.7,1,3.8c0.7,1.1,1.6,2,2.8,2.7c1.2,0.6,2.5,1,4,1c1.5,0,2.8-0.3,4-1c1.2-0.6,2.1-1.5,2.8-2.7c0.7-1.1,1-2.4,1-3.8
			c0-1.5-0.3-2.8-1-3.9C182.4,48.3,181.4,47.4,180.3,46.8z M180,55.7c-0.4,0.7-0.9,1.2-1.5,1.6c-0.7,0.4-1.4,0.5-2.2,0.5
			c-0.8,0-1.5-0.2-2.2-0.5c-0.6-0.4-1.2-0.9-1.5-1.6c-0.4-0.7-0.6-1.5-0.6-2.4c0-0.9,0.2-1.8,0.6-2.4c0.4-0.7,0.9-1.2,1.5-1.6
			c0.6-0.4,1.4-0.5,2.2-0.5c0.8,0,1.6,0.2,2.2,0.5c0.7,0.4,1.2,0.9,1.5,1.6c0.4,0.7,0.6,1.5,0.6,2.4C180.6,54.2,180.4,55,180,55.7z"
			/>
		<path class="st3" d="M199.6,46.7c-1.1-0.6-2.4-0.9-3.8-0.9c-1.2,0-2.3,0.3-3.2,0.8c-0.5,0.3-1,0.7-1.4,1.2v-7.5h-3.4v20.2h3.2
			v-1.9c0.4,0.5,0.9,1,1.5,1.3c1,0.5,2.1,0.8,3.3,0.8c1.4,0,2.7-0.3,3.8-0.9c1.1-0.6,2-1.5,2.6-2.6c0.6-1.1,1-2.4,1-3.9
			c0-1.5-0.3-2.8-1-3.9C201.6,48.2,200.7,47.4,199.6,46.7z M199.2,55.7c-0.4,0.7-0.9,1.2-1.5,1.6c-0.6,0.4-1.4,0.5-2.2,0.5
			c-0.8,0-1.6-0.2-2.2-0.5c-0.7-0.4-1.2-0.9-1.6-1.6c-0.4-0.7-0.6-1.5-0.6-2.4c0-0.9,0.2-1.8,0.6-2.4c0.4-0.7,0.9-1.2,1.6-1.6
			c0.7-0.4,1.4-0.5,2.2-0.5c0.8,0,1.5,0.2,2.2,0.5c0.6,0.4,1.2,0.9,1.5,1.6c0.4,0.7,0.6,1.5,0.6,2.4C199.7,54.2,199.5,55,199.2,55.7
			z"/>
		<path class="st3" d="M219.6,49.3c-0.6-1.1-1.5-2-2.6-2.6c-1.1-0.6-2.4-0.9-3.8-0.9c-1.5,0-2.7,0.3-3.9,1c-1.1,0.6-2,1.5-2.7,2.6
			c-0.6,1.1-1,2.4-1,3.9c0,1.4,0.3,2.7,1,3.8c0.7,1.1,1.6,2,2.8,2.7c1.2,0.6,2.6,1,4.2,1c1.3,0,2.4-0.2,3.4-0.6c1-0.4,1.8-1,2.5-1.8
			l-1.8-2.1c-0.5,0.5-1.1,0.9-1.7,1.2c-0.7,0.3-1.4,0.4-2.2,0.4c-0.9,0-1.8-0.2-2.5-0.5c-0.7-0.4-1.3-0.9-1.7-1.6
			c-0.3-0.4-0.4-0.9-0.5-1.4h11.4c0-0.2,0-0.3,0-0.5c0-0.2,0-0.3,0-0.5C220.6,51.8,220.3,50.5,219.6,49.3z M209.6,50.6
			c0.4-0.6,0.8-1.1,1.5-1.5c0.6-0.4,1.4-0.5,2.2-0.5c0.8,0,1.5,0.2,2.2,0.5c0.6,0.4,1.1,0.9,1.5,1.5c0.3,0.4,0.4,1,0.5,1.5h-8.3
			C209.2,51.5,209.3,51,209.6,50.6z"/>
	</g>
</g>
</svg>
